SplineFontDB: 3.0
FontName: absurdlycomplexrad
FullName: Absurdly Complex Rad
FamilyName: Absurdly Complex Rad
Weight: Normal
Copyright: \\uFFFD copyright 1997 Terrence Curran http://members.aol.com/teacalcium
Version: 20150807
ItalicAngle: 0
UnderlinePosition: -113
UnderlineWidth: 20
Ascent: 800
Descent: 200
InvalidEm: 0
sfntRevision: 0x00010000
LayerCount: 2
Layer: 0 0 "Back" 1
Layer: 1 0 "Fore" 0
XUID: [1021 270 -1463357204 6905615]
UniqueID: 4143655
FSType: 4
OS2Version: 3
OS2_WeightWidthSlopeOnly: 0
OS2_UseTypoMetrics: 1
CreationTime: 1438945965
ModificationTime: 1454208423
PfmFamily: 81
TTFWeight: 400
TTFWidth: 5
LineGap: 0
VLineGap: 0
Panose: 0 0 0 0 0 0 0 0 0 0
OS2TypoAscent: 800
OS2TypoAOffset: 0
OS2TypoDescent: -200
OS2TypoDOffset: 0
OS2TypoLinegap: 0
OS2WinAscent: 1000
OS2WinAOffset: 0
OS2WinDescent: 0
OS2WinDOffset: 0
HheadAscent: 800
HheadAOffset: 0
HheadDescent: -200
HheadDOffset: 0
OS2SubXSize: 650
OS2SubYSize: 600
OS2SubXOff: 0
OS2SubYOff: 75
OS2SupXSize: 650
OS2SupYSize: 600
OS2SupXOff: 0
OS2SupYOff: 350
OS2StrikeYSize: 20
OS2StrikeYPos: 300
OS2CapHeight: 0
OS2XHeight: 0
OS2Vendor: 'pyrs'
OS2CodePages: 00000001.00000000
OS2UnicodeRanges: 00000000.00000000.00000000.00000000
Lookup: 258 0 0 "'kern' Horizontal Kerning in Latin lookup 0" { "'kern' Horizontal Kerning in Latin lookup 0 subtable"  } ['kern' ('latn' <'dflt' > ) ]
MarkAttachClasses: 1
DEI: 91125

StartChar: A
Encoding: 65 65 1
Width: 757
Flags: W
HStem: -202 45<487.619 606> -94 41<536.893 585> -69 35<84.0518 434.948> -19 40<20.1995 160 290 345.801> 209 40<191 213 353 469 561 645 680 699> 259 82<558.877 631.123> 356 130<521.738 612.262> 424 41<139.01 202.99> 490 142<474.5 577.5> 532 35<37.0518 273.948> 585 35<134.052 319>
VStem: 98 37<357.879 419.364> 109 34<51.4045 86.9> 152 39<249 325.349> 207 37<358.228 419.364> 453 146<510.875 611.125> 476 49<-40.9598 35.7893> 506 122<371.816 470.184> 554 82<264.078 336.123> 644 45<-41.5154 35.1647> 645 35<173.473 209 249 410.938> 699 40<118.199 209 249 356.801>
LayerCount: 2
Back
Fore
SplineSet
421 612 m 1xdd3604
 547 249 l 1
 645 249 l 1
 645 398 l 2
 645 421 680 421 680 398 c 2
 680 249 l 1
 699 249 l 1
 699 341 l 2
 699 368 739 368 739 341 c 2
 739 134 l 2
 739 107 699 107 699 134 c 2
 699 209 l 1
 680 209 l 1
 680 188 l 2
 680 165 645 162 645 185 c 2
 645 209 l 1xdd360c
 561 209 l 1
 597 102 l 1
 651 97 689 56 689 5 c 0
 689 -26 678 -49 655 -67 c 1
 694 -181 l 2
 710 -229 647 -253 624 -209 c 1
 620 -203 l 1
 503 -202 l 2
 473 -202 473 -157 503 -157 c 2
 606 -157 l 1
 585 -95 l 2
 583 -95 585 -94 583 -94 c 0
 524 -94 476 -50 476 5 c 0
 476 40 494 69 525 86 c 1
 484 209 l 1
 343 209 l 1
 290 21 l 1
 330 21 l 2
 357 21 357 -19 330 -19 c 2
 36 -19 l 2
 9 -19 9 21 36 21 c 2
 160 21 l 1
 213 209 l 1
 183 209 l 1
 143 61 l 2
 136 38 102 48 109 70 c 2xdd2e94
 152 219 l 1
 152 318 l 1
 119 326 98 355 98 390 c 0
 98 432 131 465 171 465 c 0
 211 465 244 432 244 390 c 0
 244 356 223 327 191 319 c 1
 191 249 l 1
 224 248 l 1
 319 585 l 1
 148 585 l 2
 125 585 125 620 148 620 c 2
 405 620 l 2
 412.834815263 620 418 618 421 612 c 1xdd3604
353 249 m 1
 469 249 l 1
 405 433 l 1
 353 249 l 1
525 -3 m 0xdc0694
 525 -31 552 -53 584 -53 c 0
 617 -53 644 -31 644 -3 c 0
 644 25 617 47 584 47 c 0
 552 47 525 25 525 -3 c 0xdc0694
98 -34 m 2xbc1604
 421 -34 l 2
 444 -34 444 -69 421 -69 c 2
 98 -69 l 2
 75 -69 75 -34 98 -34 c 2xbc1604
135 389 m 0
 135 369 151 353 171 353 c 0
 191 353 207 369 207 389 c 0
 207 408 191 424 171 424 c 0x9d1604
 151 424 135 408 135 389 c 0
554 300 m 0x9c0624
 554 323 572 341 595 341 c 0
 618 341 636 323 636 300 c 0
 636 278 618 259 595 259 c 0
 572 259 554 278 554 300 c 0x9c0624
506 421 m 0x9e0644
 506 457 533 486 567 486 c 0
 601 486 628 457 628 421 c 0
 628 385 601 356 567 356 c 0
 533 356 506 385 506 421 c 0x9e0644
453 561 m 0x9c8704
 453 600 486 632 526 632 c 0
 566 632 599 600 599 561 c 0
 599 522 566 490 526 490 c 0
 486 490 453 522 453 561 c 0x9c8704
51 567 m 2x9c4604
 260 567 l 2
 283 567 283 532 260 532 c 2
 51 532 l 2
 28 532 28 567 51 567 c 2x9c4604
126 285 m 2
 66 58 l 2
 60 36 26 44 32 67 c 2
 92 294 l 2
 98 317 132 308 126 285 c 2
EndSplineSet
Validated: 33
EndChar

StartChar: B
Encoding: 66 66 2
Width: 701
Flags: HWO
HStem: -138 35<27.0518 125 200 621.555> -90 35<226.445 490> -25 45<200 334> 128 44<233.619 338 513 576> 317 46<201 347> 609 45<8.8501 125 200 365> 675 39<131.54 249>
VStem: 13 35<42.4453 219.948 261.445 376.555> 20 35<421.052 570.948> 71 35<-51.9482 581.948> 125 75<-103 -25 20 317 363 609> 338 171<65 127 172 245> 350 127<411 550> 503 35<450.138 533> 531 45<309 361.221> 556 35<37 90.5547> 576 45<173 239> 653 31<304 374>
LayerCount: 2
Back
Fore
SplineSet
304 609 m 2
 200 609 l 1
 200 363 l 1
 310 363 l 2
 350 363 350 404 350 476 c 0xfe6840
 350 551 365 609 304 609 c 2
576 279 m 1xfe60c0
 576 392 l 1
 551 385 531 362 531 336 c 0xfe6240
 531 309 550 286 576 279 c 1xfe60c0
621 387 m 1
 621 284 l 1
 639 294 653 314 653 336 c 0
 653 358 639 377 621 387 c 1
200 20 m 1
 290 20 l 2
 334 20 338 65 338 127 c 1
 249 128 l 2
 219 128 219 173 249 173 c 2
 338 172 l 1xfe7040
 338 253 347 312 260 317 c 1
 201 317 l 1
 200 20 l 1
200 -25 m 1
 200 -103 l 1
 607 -103 l 2
 631 -103 631 -138 607 -138 c 2
 199 -138 l 1
 190 -173 137 -172 127 -138 c 1
 41 -138 l 2
 18 -138 18 -103 41 -103 c 2
 125 -103 l 1
 125 609 l 1
 25 609 l 2
 -5 609 -5 654 25 654 c 2
 304 654 l 2
 371 654 479 550 477 474 c 0
 475 411 450 366 407 341 c 1
 468 309 510 245 513 172 c 1
 576 173 l 1
 576 239 l 1xfe68c0
 531 246 497 287 497 336 c 0
 497 390 539 433 591 433 c 0xfe6140
 642 433 684 390 684 336 c 0
 684 294 657 257 621 243 c 1
 621 150 l 2xfe60c0
 621 138 610 128 598 128 c 2
 509 128 l 1
 496 41 436 -25 342 -25 c 2
 200 -25 l 1
106 568 m 2
 106 -38 l 2
 106 -61 71 -61 71 -38 c 2
 71 568 l 2
 71 591 106 591 106 568 c 2
241 -55 m 2
 420 -55 l 2
 490 -55 556 37 556 76 c 0
 556 100 591 100 591 76 c 0xfe6140
 591 19 511 -90 421 -90 c 2
 241 -90 l 2
 217 -90 217 -55 241 -55 c 2
55 557 m 2xfee040
 55 435 l 2
 55 412 20 412 20 435 c 2
 20 557 l 2
 20 580 55 580 55 557 c 2xfee040
48 362 m 2xff6040
 48 276 l 2
 48 252 13 252 13 276 c 2
 13 362 l 2
 13 386 48 386 48 362 c 2xff6040
48 206 m 2
 48 57 l 2
 48 33 13 33 13 57 c 2
 13 206 l 2
 13 229 48 229 48 206 c 2
145 714 m 0
 249 714 415 723 475 648 c 0
 524 586 538 533 538 456 c 0
 538 433 503 433 503 456 c 0xfe6440
 503 577 416 676 325 675 c 0
 271 675 209 675 145 675 c 0
 122 675 122 714 145 714 c 0
EndSplineSet
Validated: 33
EndChar

StartChar: C
Encoding: 67 67 3
Width: 631
Flags: HW
HStem: -108 35<75.4453 198.948 225.54 313.948 333.052 456.555> 158 35<271.346 346 492 567.305> 188 35<385 440.25> 340 35<49 85 220 269.948> 393 70<20.6406 83.3594> 429 35<259.052 532.948> 474 45<313.85 393 446.214 608.15> 485 71<42.625 104.359> 578 63<90.6407 148.368> 604 45<246.557 350.487> 645 58<160.845 214.09> 657 46<346.029 390.971> 673 51<255.283 303.717>
VStem: 18 68<395.469 460.657> 40 67<487.469 553.518> 85 48<144.82 340 375 443.702> 89 61<579.404 639.589> 160 55<645.743 702.257> 168 52<130.3 340 375 443.109> 255 49<673.198 723.802> 346 45<657.029 702.971> 393 44<77.0934 153>
LayerCount: 2
Back
Fore
SplineSet
289 604 m 0x92413c
 223 603 220 517 220 375 c 1
 256 375 l 2
 279 375 279 340 256 340 c 2
 220 340 l 1
 220 340 220 310 220 292 c 0
 220 105 210 24 289 24 c 0
 339 24 402 73 393 153 c 1
 437 153 l 1
 437 86 374 -15 289 -21 c 0
 165 -31 81 144 82 290 c 0
 82 308 83 323 85 340 c 1
 49 340 l 1
 45 236 56 111 136 27 c 0
 152 10 127 -14 111 3 c 0
 6 113 3 375 31 375 c 2
 88 375 l 1
 108 527 183 649 289 649 c 0
 364 649 419 609 455 519 c 1
 499 519 548 519 592 519 c 0
 622 519 622 474 592 474 c 2
 330 474 l 2
 300 474 300 519 330 519 c 0
 353 519 376 519 393 519 c 1
 361 587 334 604 289 604 c 0x92413c
273 464 m 2x94001c
 519 464 l 2
 542 464 542 429 519 429 c 2
 273 429 l 2
 250 429 250 464 273 464 c 2x94001c
488 109 m 0
 470 42 416 -25 348 -51 c 0
 326 -60 316 -37 337 -26 c 0
 438 29 500 187 414 188 c 0xb0001c
 381 188 378 131 375 109 c 0
 373 86 338 89 341 113 c 0
 342 126 343 143 346 158 c 1
 283 158 l 2
 259 158 259 193 283 193 c 2
 362 193 l 1xd0001c
 373 210 389 223 415 223 c 0xb0001c
 440 222 463 208 476 190 c 1
 555 190 l 2
 579 191 579 156 555 155 c 2
 492 155 l 1
 495 140 493 125 488 109 c 0
18 428 m 0x98041c
 18 448 33 463 52 463 c 0
 71 463 86 448 86 428 c 0
 86 409 71 393 52 393 c 0
 33 393 18 409 18 428 c 0x98041c
40 520 m 0x91021c
 40 540 55 556 73 556 c 0
 92 556 107 540 107 520 c 0
 107 501 92 485 73 485 c 0
 55 485 40 501 40 520 c 0x91021c
89 609 m 0x90809c
 89 627 103 641 120 641 c 0
 136 641 150 627 150 609 c 0
 150 592 136 578 120 578 c 0
 103 578 89 592 89 609 c 0x90809c
160 674 m 0x90205c
 160 690 172 703 187 703 c 0
 202 703 215 690 215 674 c 0
 215 658 202 645 187 645 c 0
 172 645 160 658 160 674 c 0x90205c
255 699 m 0
 255 713 266 724 279 724 c 0
 293 724 304 713 304 699 c 0
 304 684 293 673 279 673 c 0x90081c
 266 673 255 684 255 699 c 0
346 680 m 0
 346 693 356 703 369 703 c 0
 381 703 391 693 391 680 c 0
 391 667 381 657 369 657 c 0x90101c
 356 657 346 667 346 680 c 0
168 430 m 2x90013c
 168 453 133 453 133 430 c 2
 133 147 l 2
 133 123 168 123 168 147 c 2
 168 430 l 2x90013c
90 -73 m 2
 185 -73 l 2
 208 -73 208 -108 185 -108 c 2
 90 -108 l 2
 66 -108 66 -73 90 -73 c 2
239 -73 m 2
 300 -73 l 2
 323 -73 323 -108 300 -108 c 2
 239 -108 l 2
 216 -108 216 -74 239 -73 c 2
347 -73 m 2
 442 -73 l 2
 466 -73 466 -108 442 -108 c 2
 347 -108 l 2
 324 -108 324 -73 347 -73 c 2
EndSplineSet
Validated: 33
EndChar

StartChar: D
Encoding: 68 68 4
Width: 627
Flags: W
HStem: -115 88<15.1667 87.8739> -106 35<101.445 187 260 499.948> -21 45<64.8501 186 261 418.624> 53 35<19.0625 123 158 186 261 371.938> 449 35<335.445 430 553 568> 496 33<53.8493 126.692> 566 45<81.8501 137 164.804 186 261 419.331> 631 35<329.129 459.332> 640 31<50.7456 127.155>
VStem: 7 26<553.482 619.723> 9 85<-109.105 -32.8947> 60 35<265.505 343.94> 123 35<88 225.849 381.958 486.948> 186 75<-71 -21 24 53 88 566 611 646.277> 430 47<132.171 424.561> 512 63<135.172 423.87>
LayerCount: 2
Back
Fore
SplineSet
610 473 m 0x3f5f
 614 460 607 449 593 449 c 2
 553 449 l 1
 567 406 575 354 575 294 c 0
 575 85 488 -21 363 -21 c 2
 261 -21 l 1
 261 -64 l 2
 261 -67 260 -69 260 -71 c 2
 486 -71 l 2
 509 -71 509 -106 486 -106 c 2
 116 -106 l 2
 92 -106 92 -71 116 -71 c 2
 187 -71 l 2
 187 -69 186 -67 186 -64 c 2
 186 -21 l 1
 81 -21 l 2
 51 -21 51 24 81 24 c 2
 186 24 l 1
 186 53 l 1
 32 54 l 2
 9 54 9 89 32 89 c 2
 123 88 l 1
 123 221 l 1
 84 227 60 262 60 303 c 0
 60 343 85 381 123 387 c 1
 123 473 l 2
 123 496 158 496 158 473 c 2
 158 360 l 1
 108 360 95 325 95 303 c 0
 95 275 116 251 158 251 c 1
 158 88 l 1
 186 88 l 1
 186 566 l 1
 172 566 l 1
 164 527 129 496 90 496 c 0
 44 496 7 535 7 584 c 0
 7 632 44 671 90 671 c 0x7edf
 127 671 158 647 168 611 c 1
 186 611 l 1
 186 625 l 2
 185 674 261 675 261 625 c 2
 261 611 l 1
 359 611 l 2
 439 611 504 569 541 484 c 1
 568 484 l 1
 512 621 449 628 343 631 c 0
 319 632 320 667 344 666 c 0
 464 663 545 651 610 473 c 0x3f5f
94 -71 m 0x7e2f
 94 -95 75 -115 52 -115 c 0xbe2f
 28 -115 9 -95 9 -71 c 0x7e2f
 9 -47 28 -27 52 -27 c 0xbe2f
 75 -27 94 -47 94 -71 c 0x7e2f
512 149 m 2
 512 407 l 2
 512 431 477 431 477 407 c 2
 477 149 l 2
 477 126 512 126 512 149 c 2
140 566 m 1
 98 566 l 2
 68 566 68 611 98 611 c 2
 137 611 l 1
 129 629 111 640 91 640 c 0
 62 640 33 618 33 588 c 0x3ecf
 33 557 63 529 92 529 c 0
 114 529 132 545 140 566 c 1
430 87 m 0
 433 128 430 200 430 287 c 0
 430 340 430 428 430 449 c 1
 350 449 l 2
 326 449 326 484 350 484 c 2
 430 484 l 1
 430 491 430 498 430 504 c 0
 430 544 415 566 359 566 c 2
 261 566 l 1
 261 88 l 1
 359 89 l 2
 382 89 382 54 359 54 c 2
 261 53 l 1
 261 24 l 1
 363 24 l 2
 412 24 430 43 430 87 c 0
EndSplineSet
Validated: 33
EndChar

StartChar: E
Encoding: 69 69 5
Width: 489
Flags: W
HStem: -105 35<40.8828 109 184 381.117 419.072 469.928> -62 19<373.772 429.092> -22 45<26.8501 109 184 238.491> 41 22<371.231 431.827> 251 35<184 220.864> 478 126<233.875 408> 510 45<10.8501 39 74 109 184 229.448> 630 35<89.0625 209.938 237.54 325.5 346.5 467.938>
VStem: 39 35<234.052 510 555 688.948> 51 75<73.1484 196.852> 109 75<-70 -22 23 62.1336 224 251 286 510 555 606.429> 139 45<51.4368 222.921> 409 45<446.106 478> 419 51<-110.743 -67.2571>
LayerCount: 2
Back
Fore
SplineSet
184 -70 m 1xfba8
 375 -70 l 2
 399 -70 399 -105 375 -105 c 2
 184 -105 l 1xfb10
 182 -151 112 -152 109 -105 c 1
 47 -105 l 2
 23 -105 23 -70 47 -70 c 2
 109 -70 l 1
 109 -22 l 1xfb20
 43 -22 l 2
 13 -22 13 23 43 23 c 2
 110 23 l 1
 110 48 l 1
 144 62 139 84 139 133 c 0xfb10
 139 182 143 224 109 224 c 1
 109 510 l 1
 74 510 l 1
 74 248 l 2
 74 225 39 225 39 248 c 2
 39 510 l 1
 27 510 l 2
 -3 510 -3 555 27 555 c 2
 39 555 l 1
 39 675 l 2
 39 698 74 698 74 675 c 2
 74 555 l 1
 109 555 l 1
 109 585 l 2
 109 635 185 636 184 586 c 2
 184 555 l 1
 220 555 l 1xfba0
 227 580 246 604 280 604 c 2
 396 604 l 2
 438 604 453 572 453 540 c 2
 454 462 l 2
 454 431 409 431 409 462 c 2
 408 478 l 1
 280 478 l 2xfda8
 251 478 233 491 224 510 c 1
 184 510 l 1
 184 286 l 1
 221 286 l 1
 232 312 259 329 291 329 c 0
 332 329 365 298 365 260 c 0
 365 222 332 190 291 190 c 0
 253 190 221 217 216 251 c 1
 184 251 l 1
 184 23 l 1
 226 23 l 1
 235 45 254 63 284 63 c 2
 399 63 l 2
 482 64 482 -61 399 -62 c 2
 284 -62 l 2
 253 -62 233 -44 226 -22 c 1
 184 -22 l 1
 184 -70 l 1xfba8
102 665 m 2
 197 665 l 2
 220 665 220 630 197 630 c 2
 102 630 l 2
 79 630 79 665 102 665 c 2
251 665 m 2
 312 666 l 2
 336 666 336 631 312 631 c 2
 251 631 l 2
 228 631 228 665 251 665 c 2
360 665 m 2
 455 665 l 2
 478 665 478 630 455 630 c 2
 360 630 l 2
 336 630 336 665 360 665 c 2
126 174 m 2xf940
 126 96 l 2
 126 46 51 46 51 96 c 2
 51 174 l 2
 51 224 126 224 126 174 c 2xf940
356 -1 m 0
 356 -24 377 -43 402 -43 c 0
 427 -43 448 -24 448 -1 c 0
 448 22 427 41 402 41 c 0
 377 41 356 22 356 -1 c 0
419 -89 m 0xf904
 419 -77 430 -67 445 -67 c 0
 459 -67 470 -77 470 -89 c 0
 470 -101 459 -111 445 -111 c 0
 430 -111 419 -101 419 -89 c 0xf904
EndSplineSet
Validated: 33
EndChar

StartChar: F
Encoding: 70 70 6
Width: 548
Flags: HW
HStem: -98 45<14.6191 188 263 359.381> -33 115<247.848 335.829> 233 35<146 188 262 299.432> 416 35<93.8318 188 262 339.555> 477 125<312.005 486.29> 509 45<89.6191 188 262 307.274> 586 35<20.5 188> 646 35<87.0518 209.948 236.54 325.555 344.445 467.948>
VStem: 25 35<295.398 385.617> 60 51<309.716 341.829> 111 35<-17.9482 234 325 338.948> 188 74<-125.35 -98 -53 -32.4017 82.2617 233 451 509 554 585> 235 114<-19.7451 68.8289> 487 45<444.811 477>
LayerCount: 2
Back
Fore
SplineSet
454 646 m 2
 359 646 l 2
 335 646 335 681 359 681 c 2
 454 681 l 2
 477 681 477 646 454 646 c 2
311 646 m 2
 250 646 l 2
 227 646 227 680 250 681 c 2
 311 681 l 2
 335 681 335 646 311 646 c 2
196 646 m 2
 101 646 l 2
 78 646 78 681 101 681 c 2
 196 681 l 2
 219 681 219 646 196 646 c 2
532 529 m 2
 532 461 l 2
 532 431 487 431 487 458 c 2
 488 477 l 1
 359 477 l 2xf9b4
 332 477 314 491 305 509 c 1
 262 509 l 1
 262 451 l 1
 325 451 l 2
 349 451 349 416 325 416 c 2
 262 416 l 1
 262 268 l 1
 295 268 l 1
 299 303 331 328 369 328 c 0
 411 328 444 297 444 259 c 0
 444 221 411 190 369 190 c 0
 338 190 311 208 300 233 c 1
 262 233 l 1
 262 93 l 1
 233 84 213 57 213 25 c 0
 213 -8 234 -35 263 -44 c 1
 263 -53 l 1
 344 -53 l 2
 374 -53 374 -98 344 -98 c 2
 263 -98 l 1
 263 -104 l 2
 263 -154 187 -154 188 -104 c 2
 188 -98 l 1
 30 -97 l 2
 0 -97 0 -52 30 -52 c 2
 188 -53 l 1
 188 233 l 1
 169 233 l 2
 161 233 154 233 146 234 c 1
 146 -4 l 2
 146 -27 111 -27 111 -4 c 2
 111 239 l 1
 62 252 25 282 25 340 c 0
 25 420 95 451 169 451 c 2
 188 451 l 1
 188 509 l 1
 105 509 l 2
 75 509 75 554 105 554 c 2
 188 554 l 1
 188 585 l 1
 34 586 l 2
 10 586 10 621 34 621 c 2
 247 621 l 2
 259 621 262 610 262 601 c 2
 262 554 l 1xf7b4
 299 555 l 1
 304 580 325 602 359 602 c 2xf9b4
 474 601 l 2
 521 601 532 568 532 529 c 2
349 25 m 0xf10c
 349 -7 323 -33 292 -33 c 0
 260 -33 235 -7 235 25 c 0
 235 56 260 82 292 82 c 0
 323 82 349 56 349 25 c 0xf10c
169 268 m 2
 188 268 l 1
 188 416 l 1
 169 416 l 2
 100 416 60 389 60 340 c 0
 60 308 78 287 111 276 c 1xf1b4
 111 325 l 2xf144
 111 348 146 348 146 325 c 2
 146 269 l 1xf124
 153 269 161 268 169 268 c 2
EndSplineSet
Validated: 33
EndChar

StartChar: G
Encoding: 71 71 7
Width: 625
Flags: W
HStem: -90 35<306.445 473 518 588.555> -24 35<394.052 473 518 579> -21 45<241.425 345.307> 154 74<308.148 391.704 450 473 518 539.35> 245 35<334.445 579> 344 45<57 84> 423 35<251.052 536> 474 45<311.85 384 443.232 536 571 606.15> 604 45<245.915 345.342> 671 36<-47.9482 75 214 536>
VStem: 22 35<28.0518 344 389 638.948> 81 137<142.152 398.116 628.79 671> 391 59<82.503 154> 473 45<-125.465 -90 -55 -24 11 154> 536 35<458 474 519 672> 579 35<11 245>
LayerCount: 2
Back
Fore
SplineSet
518 -24 m 1xdfff
 518 -55 l 1
 574 -55 l 2
 598 -55 598 -90 574 -90 c 2
 518 -90 l 1
 518 -111 l 2
 518 -141 473 -138 473 -110 c 2
 473 -90 l 1
 321 -90 l 2
 297 -90 297 -55 321 -55 c 2
 473 -55 l 1
 473 -24 l 1
 408 -24 l 2
 385 -24 385 11 408 11 c 2
 473 11 l 1xdfff
 473 154 l 1
 450 154 l 1
 450 82 369 -21 288 -21 c 0
 163 -21 81 106 81 290 c 0
 81 310 82 324 84 344 c 1
 57 344 l 1
 57 42 l 2
 57 19 22 19 22 42 c 2
 22 625 l 2
 22 648 57 648 57 625 c 2
 57 389 l 1
 90 389 l 1
 111 537 183 649 288 649 c 0
 362 649 416 609 452 519 c 1
 491 519 508 519 536 519 c 1
 536 672 l 1
 214 671 l 1
 213 635 182 605 144 605 c 0
 107 605 76 634 75 671 c 1
 -34 671 l 2
 -57 671 -57 707 -34 707 c 2
 83 707 l 1
 95 729 118 744 144 744 c 0
 171 744 194 729 206 707 c 1
 553 707 l 2
 562 708 571 701 571 689 c 2
 571 519 l 1
 585 519 576 519 590 519 c 0
 620 519 620 474 590 474 c 2
 571 474 l 1
 571 440 l 2
 571 431 563 423 554 423 c 2
 265 423 l 2
 242 423 242 458 265 458 c 2
 536 458 l 1
 536 474 l 1
 328 474 l 2
 298 474 298 519 328 519 c 0
 352 519 347 519 384 519 c 1
 353 587 332 604 288 604 c 0
 210 603 218 478 218 292 c 0
 218 105 208 24 288 24 c 0xbfff
 337 24 400 73 391 154 c 1
 331 153 l 2
 281 153 281 228 331 228 c 2
 518 228 l 2
 568 228 568 154 518 154 c 1
 518 11 l 1
 579 11 l 1
 579 245 l 1
 349 245 l 2
 325 245 325 280 349 280 c 2
 596 280 l 2
 606 280 614 272 614 263 c 2
 614 -5 l 2
 614 -14 609 -24 596 -24 c 2
 518 -24 l 1xdfff
EndSplineSet
Validated: 33
EndChar

StartChar: H
Encoding: 72 72 8
Width: 641
Flags: W
HStem: -162 45<0.850098 74 149 307.15> -62 35<186.052 280 390 561.555> 82 142<229.625 325.25> 316 45<48 74 149 272 397 472 517 625.15> 538 35<468.297 546.496> 611 47<397 432.575> 677 35<467.701 546.496>
VStem: 13 35<160.052 316 361 517.948> 74 75<-118 316 361 639.35> 210 135<101.682 204.318> 272 125<-26.5774 61 259 316 361 610.627> 373 24<114.44 203.984> 473 45<94.6191 316 361 488.381> 561 28<590.541 659.459>
LayerCount: 2
Back
Fore
SplineSet
74 -118 m 1xffac
 74 316 l 1
 48 316 l 1
 48 174 l 2
 48 151 13 151 13 174 c 2
 13 504 l 2
 13 527 48 527 48 504 c 2
 48 361 l 1
 74 361 l 1
 75 618 l 2
 75 668 150 668 150 618 c 2
 149 361 l 1
 272 361 l 1xffac
 273 595 l 2
 273 640 309 658 344 658 c 2
 432 658 l 1
 444 689 473 712 507 712 c 0
 552 712 589 673 589 625 c 0
 589 577 552 538 507 538 c 0
 467 538 433 570 426 611 c 1
 397 611 l 1xff9c
 397 361 l 1
 472 361 l 1
 473 473 l 2
 473 503 518 503 518 473 c 2
 517 361 l 1
 609 361 l 2
 639 361 639 316 609 316 c 2
 517 316 l 1
 518 110 l 2
 518 80 473 80 473 110 c 2
 472 316 l 1
 397 316 l 1
 398 4 l 2
 398 -8 395 -18 390 -27 c 1
 547 -27 l 2
 571 -27 571 -62 547 -62 c 2
 200 -62 l 2
 177 -62 177 -27 200 -27 c 2
 280 -27 l 1
 276 -18 273 -9 273 4 c 2
 272 61 l 1xffac
 327 61 373 105 373 159 c 0xff9c
 373 213 327 259 272 259 c 1
 272 316 l 1
 149 316 l 1
 149 -118 l 1
 291 -117 l 2
 321 -117 321 -162 291 -162 c 2
 17 -162 l 2
 -13 -162 -13 -117 17 -117 c 2
 74 -118 l 1xffac
454 625 m 0
 454 596 478 573 507 573 c 0
 537 573 561 596 561 625 c 0
 561 654 537 677 507 677 c 0
 478 677 454 654 454 625 c 0
210 153 m 0xffcc
 210 192 240 224 277 224 c 0
 315 224 345 192 345 153 c 0
 345 114 315 82 277 82 c 0
 240 82 210 114 210 153 c 0xffcc
EndSplineSet
Validated: 33
EndChar

StartChar: I
Encoding: 73 73 9
Width: 641
Flags: W
HStem: -147 21G<69 100.5> -127 35<163 231 306 510.948> -43 125<160 231 306 420> 118 35<6.0625 231 306 420 465 628.938> 483 35<362 435> 542 123<129 231 306 434.859> 552 117<517.255 607.661>
VStem: 84 43<465.646 542 665 697.276> 231 75<-92 -43 82 118 153 539> 327 35<317.052 483> 420 45<-73.8008 -43 82 118> 435 35<314.052 483 519 541 663 731.555> 504 117<565.339 655.745>
LayerCount: 2
Back
Fore
SplineSet
621 611 m 0x3bc8
 621 578 595 552 562 552 c 0
 530 552 504 578 504 611 c 0
 504 643 530 669 562 669 c 0
 595 669 621 643 621 611 c 0x3bc8
616 119 m 2
 465 118 l 1
 465 -64 l 2
 465 -94 420 -93 420 -63 c 2
 420 -43 l 1
 306 -43 l 1
 306 -92 l 1
 497 -92 l 2
 520 -92 520 -127 497 -127 c 2
 297 -127 l 1
 283 -142 255 -143 241 -127 c 1
 142 -127 l 1x7de8
 129 -140 111 -147 90 -147 c 0
 48 -147 14 -113 14 -71 c 0
 14 -36 39 -6 72 2 c 1
 63 38 84 83 133 83 c 2
 231 82 l 1
 231 118 l 1
 19 119 l 2
 -4 119 -4 154 19 154 c 2
 231 153 l 1
 231 542 l 1
 127 542 l 1
 127 480 l 2
 127 450 84 452 84 482 c 2
 84 681 l 2
 84 711 130 712 129 681 c 2
 129 665 l 1
 424 665 l 2
 428 665 432 664 435 663 c 2
 435 717 l 2
 435 741 470 741 470 717 c 2
 470 645 l 1
 492 622 491 583 470 559 c 1
 470 328 l 2
 470 305 435 305 435 328 c 2
 435 483 l 1
 362 483 l 1
 362 331 l 2
 362 308 327 308 327 331 c 2
 327 501 l 2
 327 510 335 518 344 518 c 2
 435 519 l 1
 435 541 l 2xbdd8
 432 540 428 540 424 540 c 2
 306 539 l 1
 306 153 l 1
 616 154 l 2
 639 154 639 119 616 119 c 2
306 82 m 1
 420 82 l 1
 420 118 l 1
 306 118 l 1
 306 82 l 1
231 -92 m 1
 231 -43 l 1
 160 -42 l 1
 164 -51 166 -61 166 -71 c 0
 166 -78 165 -85 163 -92 c 1
 231 -92 l 1
EndSplineSet
Validated: 33
EndChar

StartChar: J
Encoding: 74 74 10
Width: 679
Flags: W
HStem: -125 45<278.349 444.878> -86 73<26.336 93.664> -41 84<318.607 390.645> 11 73<26.336 93.664> 107 74<26.336 93.664> 117 35<258.299 318 394 472.938> 157 45<467.619 539 598 648.844> 211 73<30.1618 96.8194> 313 45<19.1348 105 212 252.865 394 460.603> 536 33<62.6743 147.846> 546 34<394 566.555> 607 45<86.8501 161 184.215 318 394 620.15> 670 35<203.052 308.555 326.445 506.555 527.445 648.948> 686 34<62.1407 147.175>
VStem: 11 32<589.639 665.728> 23 74<-82.8194 -16.1618 14.1618 80.8194 110.336 177.664 216.184 278.775> 106 106<18.3933 313> 318 76<-37.2594 39.2594 84.255 116 151 315 358.086 546 580 607> 556 45<30.4414 157>
LayerCount: 2
Back
Fore
SplineSet
103 652 m 2x01d6e0
 161 652 l 1
 151 671 129 686 105 686 c 0
 71 686 43 660 43 628 c 0
 43 595 71 569 105 569 c 0
 132 569 154 584 162 607 c 1
 103 607 l 2
 73 607 73 652 103 652 c 2x01d6e0
318 607 m 1
 192 607 l 1
 183 566 147 536 103 536 c 0x87d2e0
 52 536 11 577 11 628 c 0
 11 678 52 720 103 720 c 0
 145 720 181 691 192 652 c 1
 604 652 l 2
 634 652 634 607 604 607 c 2
 394 607 l 1
 394 580 l 1
 552 580 l 2
 576 580 576 545 552 545 c 2
 394 546 l 1
 394 362 l 1
 486 349 556 288 585 203 c 1
 639 202 l 2
 669 202 669 157 639 157 c 2
 598 157 l 1
 600 144 601 132 601 118 c 0
 601 -17 490 -125 353 -125 c 0
 217 -125 106 -17 106 118 c 2
 105 313 l 1
 31 313 l 2
 1 313 1 358 31 358 c 2
 241 358 l 2
 271 358 271 314 241 313 c 2
 212 313 l 1
 212 122 l 2
 212 13 241 -80 353 -80 c 0
 466 -80 556 9 556 118 c 0
 556 132 555 144 553 157 c 1
 483 157 l 2
 453 157 453 202 483 202 c 2
 539 203 l 1
 514 263 462 305 394 315 c 1
 394 151 l 1
 460 152 l 2
 483 152 483 117 460 117 c 2
 394 116 l 1
 394 96 l 2
 394 47 318 47 318 97 c 2
 318 116 l 1
 267 117 l 2
 243 117 243 152 267 152 c 2x87b6e0
 318 151 l 1
 318 607 l 1
217 705 m 2x0198e0
 294 705 l 2
 318 705 318 670 294 670 c 2
 217 670 l 2
 194 670 194 705 217 705 c 2x0198e0
341 705 m 2
 492 705 l 2
 516 705 516 670 492 670 c 2
 341 670 l 2
 317 670 317 705 341 705 c 2
542 705 m 2
 635 705 l 2
 658 705 658 670 635 670 c 2
 542 670 l 2
 518 670 518 705 542 705 c 2
313 1 m 0
 313 24 332 43 355 43 c 0
 378 43 396 24 396 1 c 0
 396 -22 378 -41 355 -41 c 0x2190e0
 332 -41 313 -22 313 1 c 0
27 247 m 0
 27 268 43 284 63 284 c 0
 84 284 100 268 100 247 c 0
 100 227 84 211 63 211 c 0
 43 211 27 227 27 247 c 0
23 144 m 0x0991e0
 23 164 40 181 60 181 c 0
 80 181 97 164 97 144 c 0
 97 124 80 107 60 107 c 0
 40 107 23 124 23 144 c 0x0991e0
23 47 m 0
 23 68 40 84 60 84 c 0
 80 84 97 68 97 47 c 0
 97 27 80 11 60 11 c 0x1191e0
 40 11 23 27 23 47 c 0
23 -49 m 0
 23 -29 40 -13 60 -13 c 0
 80 -13 97 -29 97 -49 c 0
 97 -70 80 -86 60 -86 c 0x4191e0
 40 -86 23 -70 23 -49 c 0
EndSplineSet
Validated: 33
EndChar

StartChar: K
Encoding: 75 75 11
Width: 707
Flags: HW
HStem: -65 35<298.052 480 587 684.948> -17 45<83.8501 189 264 341.15> 300 45<95.7111 139 174 189 264 288 434 461.634> 575 35<14.4453 139 174 189 264 288.383> 604 133<314.303 412.594> 608 45<460.688 489 573 604.865>
VStem: 139 35<56.0518 300 345 575 610 667.555> 174 15<47 70 620 670> 189 75<-142.35 -17 28 300 610 641.35> 297 133<621.406 720.047>
LayerCount: 2
Back
Fore
SplineSet
587 34 m 2
 600 10 598 -12 587 -30 c 1
 671 -30 l 2
 694 -30 694 -65 671 -65 c 2
 312 -65 l 2
 289 -65 289 -30 312 -30 c 2
 480 -30 l 1
 288 300 l 1
 264 300 l 1
 264 28 l 1
 325 28 l 2
 355 28 355 -17 325 -17 c 2
 264 -17 l 1
 264 -121 l 2
 264 -171 189 -171 189 -121 c 2
 189 -17 l 1
 100 -17 l 2
 70 -17 70 28 100 28 c 2
 189 28 l 1
 189 300 l 1
 174 300 l 1
 174 70 l 2
 174 47 139 47 139 70 c 2
 139 300 l 1
 111 300 l 2
 81 300 82 345 112 345 c 2
 139 345 l 1
 139 575 l 1
 29 575 l 2
 5 575 5 610 29 610 c 2
 139 610 l 1xf2c0
 139 653 l 2
 139 677 174 677 174 653 c 2xe6c0
 174 610 l 1
 189 610 l 1
 190 620 l 1
 190 670 265 670 265 620 c 1
 264 610 l 1
 282 610 l 1
 295 595 312 581 332 575 c 1
 264 575 l 1xf2c0
 264 345 l 1
 280 345 l 1
 290 377 328 398 361 390 c 1
 489 608 l 1
 441 608 l 1
 452 621 459 636 462 653 c 1
 593 653 l 2
 623 653 623 608 593 608 c 2
 573 608 l 1xe6c0
 421 345 l 1
 455 345 l 1
 462 385 496 414 536 414 c 0
 582 414 619 377 619 331 c 0
 619 285 582 248 536 248 c 0
 502 248 472 271 459 300 c 1
 434 300 l 1
 587 34 l 2
174 575 m 1
 174 345 l 1
 189 345 l 1
 189 575 l 1
 174 575 l 1
297 671 m 0
 297 708 327 737 363 737 c 0
 400 737 430 708 430 671 c 0
 430 634 400 604 363 604 c 0xe840
 327 604 297 634 297 671 c 0
EndSplineSet
Validated: 33
EndChar

StartChar: L
Encoding: 76 76 12
Width: 609
Flags: W
HStem: -76 35<272.688 466.948> -32 125<362 492> -32 47<257.406 337.261> 37 107<243.676 329.391> 252 27<484.424 548.824> 504 25<3.04297 130 165 180 255 430.957> 551 25<294.172 425> 602 45<66.6191 180 255 371.381> 674 25<111.495 425>
VStem: 130 35<-59.5547 504 529 567.555> 180 76<-80.5855 -32 148.812 504 529 601> 180 31<45.5167 139.015> 233 107<47.676 133.391> 425 25<576 674> 446 22<172.195 233.024> 492 45<-124.15 -32 93 143.554 160 222.289> 565 22<171.178 233.024>
LayerCount: 2
Back
Fore
SplineSet
362 93 m 1xcfd180
 492 93 l 1
 492 133 l 1
 465 144 446 171 446 204 c 0
 446 245 478 279 517 279 c 0
 555 279 587 245 587 204 c 0
 587 170 566 142 537 132 c 1
 537 91 l 1
 598 77 598 -16 537 -31 c 1
 537 -108 l 2
 537 -138 492 -138 492 -108 c 2
 492 -32 l 1xcfd380
 256 -32 l 1
 256 -62 l 2
 256 -112 180 -109 180 -59 c 2
 180 504 l 1
 165 504 l 1
 165 -45 l 2
 165 -69 130 -69 130 -45 c 2
 130 504 l 1
 14 505 l 2
 -3 505 -3 530 14 530 c 2
 130 529 l 1
 130 553 l 2
 130 577 165 577 165 553 c 2
 165 529 l 1
 180 529 l 1
 180 601 l 1
 82 602 l 2
 52 602 52 647 82 647 c 2
 356 647 l 2
 386 647 386 602 356 602 c 2
 255 601 l 1
 255 529 l 1
 420 530 l 2
 437 530 437 505 420 505 c 2
 255 504 l 1
 256 164 l 1xafe380
 229 152 211 121 211 91 c 0
 211 49 245 15 287 15 c 0xafd180
 328 15 362 52 362 93 c 1xcfd180
537 207 m 2
 537 157 l 1
 554 165 565 182 565 202 c 0
 565 230 543 252 517 252 c 0
 490 252 468 230 468 202 c 0
 468 184 478 169 492 160 c 1
 492 206 l 2
 492 236 537 237 537 207 c 2
287 -41 m 2
 453 -41 l 2
 476 -41 476 -76 453 -76 c 2
 286 -76 l 2
 262 -76 264 -41 287 -41 c 2
305 576 m 2
 425 576 l 1
 425 674 l 1
 123 674 l 2
 106 674 106 699 123 699 c 2
 438 699 l 2
 444 699 450 693 450 686 c 2
 450 563 l 2x8fc580
 450 557 444 551 438 551 c 2
 305 551 l 2
 289 551 289 576 305 576 c 2
233 91 m 0x9fc980
 233 120 257 144 287 144 c 0
 316 144 340 120 340 91 c 0
 340 61 316 37 287 37 c 0
 257 37 233 61 233 91 c 0x9fc980
EndSplineSet
Validated: 33
EndChar

StartChar: M
Encoding: 77 77 13
Width: 698
Flags: HW
HStem: -187 45<58.8501 129 184 266.15> -76 35<460.052 685.948> -31 35<392.052 519 590 666.948> 167 25<7.49512 80 115 129 255 337.505> 572 19<378.767 435.745> 608 45<406.742 437 449.302 516 590 619 644 665.276> 665 20<377.655 434.429> 718 25<203 619>
VStem: 80 35<-123.948 167 192 579.555> 129 126<-60.9531 167 192 327.148> 129 54<-142 -75 340 505> 341 22<604.012 652.057> 519 71<4 549> 619 25<70.4951 607 653 718>
LayerCount: 2
Back
Fore
SplineSet
653 -31 m 2
 406 -31 l 2
 383 -31 383 4 406 4 c 2
 519 4 l 1
 519 549 l 1
 400 406 l 1
 441 342 l 2
 450 328 428 314 420 328 c 2
 384 386 l 1
 362 360 l 1
 462 207 l 2
 491 163 422 119 394 164 c 2
 394 164 204 473 183 505 c 1
 183 340 l 1xffbc
 216 344 255 326 255 282 c 2
 255 192 l 1
 326 192 l 2
 343 192 343 167 326 167 c 2
 255 167 l 1
 255 -13 l 2xffdc
 255 -42 239 -61 219 -69 c 0
 209 -74 195 -76 184 -75 c 1
 184 -142 l 1
 250 -142 l 2
 280 -142 280 -187 250 -187 c 2
 75 -187 l 2
 45 -187 45 -142 75 -142 c 2
 129 -142 l 1xffbc
 129 167 l 1
 115 167 l 1
 115 -110 l 2
 115 -133 80 -133 80 -110 c 2
 80 167 l 1
 19 167 l 2
 2 167 2 192 19 192 c 2
 80 192 l 1
 80 565 l 2
 80 589 115 589 115 565 c 2
 115 192 l 1
 129 192 l 1xffdc
 129 581 l 1xffbc
 124 591 l 2
 99 638 163 679 191 634 c 2
 338 399 l 1
 359 423 l 1
 170 724 l 2
 163 734 168 743 180 743 c 2
 631 743 l 2
 638 743 644 738 644 731 c 2
 644 653 l 1
 649 654 l 1
 679 654 680 607 649 607 c 2
 644 607 l 1
 644 82 l 2
 644 65 619 65 619 82 c 2
 619 607 l 1
 590 607 l 1
 590 4 l 1
 653 4 l 2
 676 4 676 -31 653 -31 c 2
672 -76 m 2
 474 -76 l 2
 451 -76 451 -41 474 -41 c 2
 672 -41 l 2
 695 -41 695 -76 672 -76 c 2
444 608 m 1
 422 608 l 2
 392 608 393 654 423 654 c 2
 437 653 l 1
 429 661 419 665 407 665 c 0
 383 665 363 648 363 628 c 0
 363 608 383 591 407 591 c 0
 422 591 436 598 444 608 c 1
464 653 m 1
 619 653 l 1
 619 718 l 1
 203 718 l 1
 377 444 l 1
 516 608 l 1
 466 608 l 1
 457 587 433 572 406 572 c 0
 370 572 341 597 341 629 c 0
 341 660 370 685 406 685 c 0
 432 685 454 673 464 653 c 1
EndSplineSet
Validated: 33
EndChar

StartChar: N
Encoding: 78 78 14
Width: 673
Flags: W
HStem: -178 45<125.572 204 279 386.428> -114 25<8.04297 204 279 298 333 522> 498 45<466.85 517 593 640.15> 515 45<125.572 204> 558 127<515.294 609.253> 582 35<142.188 203 279 406.46>
VStem: 204 75<-133 -114 -89 439 560 581> 298 35<-89 229.555> 499 127<574.747 668.706> 518 75<-22.3501 6 95 498> 611 35<14.4453 56.9482 88.4453 158.948 187.052 285.948 314.052 479.555>
LayerCount: 2
Back
Fore
SplineSet
518 95 m 1xd740
 517 498 l 1
 483 498 l 2
 453 498 453 543 483 543 c 2
 624 543 l 2
 654 543 654 498 624 498 c 2
 593 498 l 1xe740
 593 -1 l 2
 593 -51 518 -51 518 -1 c 1
 517 6 l 1
 278 439 l 1
 279 -89 l 1
 298 -89 l 1
 298 215 l 2
 298 239 333 239 333 215 c 2
 333 -89 l 1
 522 -90 l 1
 294 307 l 2
 285 321 307 334 315 319 c 2
 554 -95 l 2
 560 -105 556 -114 544 -114 c 2
 278 -114 l 1
 279 -133 l 1
 370 -133 l 2
 400 -133 402 -178 372 -178 c 2
 140 -178 l 2
 110 -178 112 -133 142 -133 c 2
 204 -133 l 1
 204 -114 l 1
 19 -114 l 2
 2 -114 2 -90 19 -90 c 2
 204 -89 l 1
 204 515 l 1
 140 515 l 2
 110 515 112 560 142 560 c 2
 204 560 l 1
 203 582 l 1
 155 582 l 2
 132 582 133 617 154 617 c 2
 205 617 l 1
 208 662 273 662 277 617 c 1
 393 617 l 2
 416 616 416 582 393 582 c 2
 279 581 l 1
 279 530 l 1
 518 95 l 1xd740
646 465 m 2xc320
 646 328 l 2
 646 305 611 305 611 328 c 2
 611 465 l 2
 611 489 646 489 646 465 c 2xc320
646 272 m 2
 646 201 l 2
 646 178 611 178 611 201 c 2
 611 272 l 2
 611 295 646 295 646 272 c 2
646 145 m 2
 646 103 l 2
 646 79 611 79 611 103 c 2
 611 145 l 2
 611 168 646 168 646 145 c 2
646 43 m 2
 646 29 l 2
 646 5 611 5 611 29 c 2
 611 43 l 2
 611 66 646 66 646 43 c 2
499 622 m 0xcb80
 499 657 527 685 562 685 c 0
 597 685 626 657 626 622 c 0
 626 587 597 558 562 558 c 0
 527 558 499 587 499 622 c 0xcb80
EndSplineSet
Validated: 33
EndChar

StartChar: O
Encoding: 79 79 15
Width: 761
Flags: HW
HStem: -114 25<1.17188 499> -52 98<546.385 627.615> -25 45<311.518 427.397> 36 35<360.821 398.536> 537 35<97.5 171 285 336.938> 587 98<120.385 201.615> 635 45<310.995 426.899> 690 25<249 742.259>
VStem: 112 98<595.121 676.615> 122 71<289.76 352.305> 224 24<635 690> 420 35<136.479 534.662> 472 145<182.844 469.779> 499 25<-89 26> 538 98<-43.6152 37.6152>
LayerCount: 2
Back
Fore
SplineSet
617 327 m 0xab78
 617 219 582 117 524 51 c 1
 524 -102 l 2
 524 -109 518 -114 512 -114 c 2
 12 -114 l 2
 -4 -114 -4 -89 12 -89 c 2
 499 -89 l 1
 499 26 l 1xab34
 462 -7 418 -25 369 -25 c 0
 226 -25 122 141 122 327 c 0
 122 404 140 477 171 537 c 1
 111 537 l 2
 87 537 87 572 111 572 c 2
 191 571 l 1
 201 586 212 600 224 612 c 1
 224 703 l 2
 224 710 229 715 236 715 c 2
 735 715 l 2
 752 715 752 690 735 690 c 2
 249 690 l 1
 248 635 l 1
 284 663 325 680 369 680 c 0
 513 680 617 513 617 327 c 0xab78
369 635 m 0
 325 635 299 612 285 571 c 1
 324 572 l 2
 347 572 347 537 324 537 c 2
 276 536 l 1
 269 493 268 434 268 370 c 1
 226 365 193 345 193 320 c 0
 193 295 225 274 268 270 c 1
 268 122 277 20 369 20 c 0
 474 20 472 149 472 327 c 0xab78
 472 506 474 635 369 635 c 0
373 622 m 0
 469 646 455 372 455 335 c 0
 455 290 478 18 372 36 c 0x9930
 349 40 354 75 377 71 c 0
 432 62 420 305 420 335 c 0
 420 391 419 597 382 588 c 0
 359 582 351 616 373 622 c 0
538 -3 m 0xc932
 538 24 560 46 587 46 c 0
 614 46 636 24 636 -3 c 0
 636 -30 614 -52 587 -52 c 0
 560 -52 538 -30 538 -3 c 0xc932
112 636 m 0x8db0
 112 663 134 685 161 685 c 0
 188 685 210 663 210 636 c 0
 210 608 188 587 161 587 c 0
 134 587 112 608 112 636 c 0x8db0
EndSplineSet
Validated: 33
EndChar

StartChar: P
Encoding: 80 80 16
Width: 710
Flags: W
HStem: -134 45<125.85 223 298 360.15> 165 36<361 405 440 474.938> 223 44<146 204.439 451 532.115> 365 77<518.584 608.39> 442 35<146 223 298 349.938> 517 35<10.4453 223 298 405> 577 45<132.989 223 298 527.626>
VStem: 111 35<265 442> 223 75<-89 210.453 276.703 441 476 517 552 577> 246 52<202.516 294.998> 326 35<-45.9482 165> 405 35<-142.555 165 200 222 267 517> 513 101<372.346 434.993> 630 60<365.588 442.446>
LayerCount: 2
Back
Fore
SplineSet
177 229 m 1xefbc
 128 230 l 2
 119 230 111 238 111 247 c 2
 111 459 l 2
 111 468 119 477 128 477 c 2
 223 476 l 1
 223 517 l 1
 25 517 l 2
 1 517 1 552 25 552 c 2
 223 552 l 1
 223 577 l 1
 149 577 l 2
 119 578 120 622 150 622 c 2
 454 622 l 2
 579 622 690 543 690 412 c 0
 690 309 616 249 528 228 c 0
 517 227 462 223 451 223 c 2
 440 222 l 1
 440 200 l 1
 462 201 l 2
 485 201 485 166 462 166 c 2
 440 165 l 1
 440 -128 l 2
 440 -152 405 -152 405 -128 c 2
 405 165 l 1
 361 165 l 1
 361 -32 l 2
 361 -55 326 -55 326 -32 c 2
 326 183 l 2
 326 192 334 201 344 201 c 2
 405 200 l 1
 405 222 l 1
 359 222 l 2
 329 222 329 267 359 267 c 2
 405 267 l 1
 405 517 l 1
 298 517 l 1
 298 476 l 1
 337 477 l 2
 360 477 360 442 337 442 c 2
 298 441 l 1
 298 -89 l 1
 344 -89 l 2
 374 -89 374 -134 344 -134 c 2
 142 -134 l 2
 112 -134 112 -89 142 -89 c 2
 223 -89 l 1xefbc
 224 198 l 2
 223 205 226 208 235 208 c 0
 247 208 246 211 246 220 c 2
 246 237 l 1
 246 266 l 2xef7c
 246 281 243 282 235 282 c 0
 226 282 224 287 224 295 c 2
 223 441 l 1
 146 442 l 1
 146 265 l 1
 178 264 l 1
 184 273 194 279 205 279 c 0
 223 279 237 264 237 246 c 0
 237 227 223 212 205 212 c 0
 193 212 183 219 177 229 c 1xefbc
440 267 m 1
 451 268 l 1
 536 269 551 294 553 349 c 1
 555 348 558 349 561 349 c 0
 599 349 630 374 630 404 c 0
 630 434 599 458 561 458 c 0
 558 458 555 458 552 458 c 1
 552 531 544 577 454 577 c 2
 298 577 l 1
 298 552 l 1
 423 552 l 2
 432 552 440 544 440 535 c 2
 440 267 l 1
513 404 m 0
 513 425 536 442 563 442 c 0
 591 442 614 425 614 404 c 0
 614 383 591 365 563 365 c 0xf73c
 536 365 513 383 513 404 c 0
EndSplineSet
Validated: 33
EndChar

StartChar: Q
Encoding: 81 81 17
Width: 749
Flags: W
HStem: -190 45<444.85 546 642 705.688> -114 35<18.4453 440.949 526.88 546 642 673> -32 45<215.171 330.281> 204 45<280.619 374 515 597> 273 35<302.052 366 521 673 708 734.555> 486 35<251 361 488 673> 558 35<6.05176 89 201 216 252 271.948> 628 45<252 326.958>
VStem: 25 146<179.403 464.145> 216 35<521 558 593 609 670 754.938> 366 155<308 452.171> 546 96<-145 -114 -79 79.3021> 597 45<80 204> 673 35<-79 273 308 486>
LayerCount: 2
Back
Fore
SplineSet
521 308 m 1xffe4
 673 308 l 1
 673 486 l 1
 488 486 l 1
 509 432 521 370 521 308 c 1xffe4
546 -79 m 1xfff4
 546 17 l 2xfff4
 546 67 561 91 597 80 c 1
 597 204 l 1xffec
 508 205 l 1
 476 69 386 -32 273 -32 c 0
 129 -32 25 135 25 321 c 0
 25 409 49 494 89 558 c 1
 20 558 l 2
 -3 558 -3 594 20 593 c 2
 115 593 l 1
 143 627 178 651 216 663 c 1
 216 742 l 2
 216 765 251 765 251 742 c 2
 251 670 l 1
 258 671 265 673 273 673 c 0
 357 673 429 610 473 521 c 1
 690 521 l 2
 700 521 708 513 708 504 c 2
 708 308 l 1
 720 308 l 2
 744 308 744 273 720 273 c 2
 708 273 l 1
 708 -96 l 2
 708 -106 700 -114 690 -114 c 2
 642 -114 l 1
 642 -145 l 1
 689 -145 l 2
 720 -145 720 -190 689 -190 c 2
 461 -190 l 2
 431 -190 431 -145 461 -145 c 2
 546 -145 l 1
 546 -114 l 1
 527 -114 l 1
 518 -126 501 -135 484 -135 c 0
 465 -135 451 -127 441 -114 c 1
 33 -114 l 2
 9 -114 9 -79 33 -79 c 2
 434 -79 l 1
 438 -57 458 -42 484 -42 c 0
 509 -42 530 -57 534 -79 c 1
 546 -79 l 1xfff4
642 227 m 2xffec
 642 -79 l 1xfff4
 673 -79 l 1
 673 273 l 1
 518 273 l 1
 517 266 516 257 515 250 c 1
 620 249 l 2
 632 249 642 239 642 227 c 2xffec
216 558 m 1
 188 558 l 1
 171 504 171 422 171 324 c 0
 171 145 168 13 273 13 c 0
 354 13 370 87 374 205 c 1
 296 204 l 2
 266 204 266 249 296 249 c 2
 375 249 l 1
 375 249 375 263 375 273 c 1
 316 273 l 2
 293 273 293 308 316 308 c 2
 366 308 l 1
 366 374 369 435 365 486 c 1
 234 486 l 2
 224 486 216 494 216 504 c 2
 216 558 l 1
361 521 m 1
 352 587 329 628 273 628 c 0
 266 628 258 625 252 624 c 1
 252 593 l 1
 258 593 l 2
 281 593 281 558 258 558 c 2
 251 558 l 1
 251 521 l 1
 361 521 l 1
216 593 m 1
 216 609 l 1
 210 604 205 600 201 593 c 1
 216 593 l 1
EndSplineSet
Validated: 33
EndChar

StartChar: R
Encoding: 82 82 18
Width: 753
Flags: W
HStem: -180 45<474.85 531 655 717.276> -117 25<195.495 531 655 678> -22 45<173.85 271 346 408.15> 70 35<420.558 482.948> 117 74<448.548 521.452> 222 45<408.728 527.367> 257 92<339.665 411.288> 282 35<511.54 533.493> 493 25<19.043 202 237 271 346 358 383 442.312> 528 35<482.285 536.116> 577 45<180.85 271 346 358 383 574.721> 650 25<383 678>
VStem: 202 35<42.0518 493 518 542.948> 271 75<23 269.736 342.49 493 518 577> 271 41<261.016 351.268> 333 85<263.182 343.035> 358 25<406.172 493 518 577 622 650> 361 35<127.677 208.04> 445 80<121.129 187.057> 531 124<-135 -117 -92 152.746> 531 45<164 224> 600 137<322.234 509.524> 678 25<-92 277 554 650>
LayerCount: 2
Back
Fore
SplineSet
531 -92 m 1xfcf832
 531 101 l 1xfcf832
 531 224 l 1
 521 223 510 222 499 222 c 2
 439 222 l 2
 416 222 396 190 396 169 c 0
 396 135 427 105 469 105 c 0
 492 105 492 70 469 70 c 0
 411 70 361 113 361 169 c 0xfcf868
 361 225 394 267 487 267 c 2
 499 267 l 2
 611 267 600 313 600 410 c 0
 600 509 610 577 502 577 c 2
 383 577 l 1
 383 518 l 1
 432 519 l 2
 448 519 448 494 432 494 c 2
 383 493 l 1
 383 417 l 2
 383 401 358 401 358 417 c 2
 358 493 l 1
 346 493 l 1
 346 362 l 1xfcfca4
 327 351 312 330 312 307 c 0xfcfa20
 312 283 326 262 346 251 c 1
 346 23 l 1
 392 23 l 2
 422 23 422 -22 392 -22 c 2
 190 -22 l 2
 160 -22 160 23 190 23 c 2
 271 23 l 1
 271 493 l 1
 237 493 l 1
 237 56 l 2
 237 33 202 33 202 56 c 2
 202 493 l 1
 30 494 l 2
 13 494 13 519 30 519 c 2
 202 518 l 1
 202 529 l 2
 202 552 237 552 237 529 c 2
 237 518 l 1
 271 518 l 1
 271 577 l 1
 197 577 l 2
 167 577 167 622 197 622 c 2
 358 622 l 1
 358 663 l 2
 358 669 364 675 370 675 c 2
 691 675 l 2
 697 675 703 669 703 663 c 2
 703 530 l 1xfcfca2
 726 498 737 457 737 412 c 0xfcf824
 737 367 726 333 703 304 c 1
 703 -104 l 2
 703 -111 697 -117 691 -117 c 2
 655 -117 l 1
 655 -135 l 1
 701 -135 l 2
 732 -135 731 -180 701 -180 c 2
 491 -180 l 2
 461 -180 461 -135 491 -135 c 2
 531 -135 l 1
 531 -117 l 1
 207 -117 l 2
 190 -117 190 -92 207 -92 c 2
 531 -92 l 1xfcf832
655 -92 m 1
 678 -92 l 1
 678 277 l 1
 650 253 615 237 576 228 c 1
 576 164 l 1xf8f82a
 612 173 655 153 655 104 c 2
 655 -92 l 1
678 554 m 1
 678 650 l 1
 383 650 l 1
 383 622 l 1xf8f8a2
 502 622 l 2
 570 622 634 597 678 554 c 1
358 577 m 1
 346 577 l 1
 346 518 l 1xf8fca0
 358 518 l 1
 358 577 l 1
445 154 m 0
 445 175 463 191 485 191 c 0
 507 191 525 175 525 154 c 0
 525 134 507 117 485 117 c 0
 463 117 445 134 445 154 c 0
496 563 m 0
 602 567 568 461 573 401 c 0
 577 369 573 285 525 282 c 0
 502 280 502 317 525 317 c 2
 526 317 l 1xf9f820
 545 331 539 432 540 462 c 0
 542 498 548 530 497 528 c 0
 474 527 472 562 496 563 c 0
333 303 m 0xfaf920
 333 329 352 349 375 349 c 0
 399 349 418 329 418 303 c 0
 418 278 399 257 375 257 c 0
 352 257 333 278 333 303 c 0xfaf920
EndSplineSet
Validated: 33
EndChar

StartChar: S
Encoding: 83 83 19
Width: 587
Flags: W
HStem: -119 35<320 393.069> -23 44<320 394.405> 143 45<95.6191 119 154 168.732 209 276.381> 157 92<494.347 571.653> 301 36<318.576 352.306> 454 35<238.445 506.948> 497 46<294.619 372 425 504.289> 567 35<10.0518 115 204 341 416 566.555>
VStem: 108 93<357.324 565.543> 115 86<528.562 567> 120 35<22.5 143 188 306.938> 285 35<-146.5 -119 -77 -23 31 128.938> 360 29<70.1245 293.537> 402 55<153.404 251.179> 487 92<164.347 241.901>
LayerCount: 2
Back
Fore
SplineSet
255 647 m 0xcf1e
 221 646 209 628 204 602 c 1
 341 602 l 1
 319 632 291 649 255 647 c 0xcf1e
119 143 m 1xef3e
 111 143 l 2
 81 143 81 188 111 188 c 2
 119 188 l 1
 120 294 l 2
 120 317 155 317 155 294 c 2xef3e
 154 188 l 1
 261 188 l 2
 291 188 291 143 261 143 c 2
 209 142 l 1
 220 105 226 66 256 45 c 0
 265 39 275 35 286 31 c 1
 286 116 l 2
 286 139 321 139 321 116 c 2
 320 21 l 1
 356 16 388 25 399 50 c 0
 407 69 399 135 402 197 c 0
 406 291 411 364 335 356 c 0
 289 351 262 268 192 294 c 0
 121 321 114 403 108 462 c 0xef9e
 104 500 107 536 115 567 c 1
 24 567 l 2
 1 567 1 602 24 602 c 2
 127 602 l 1
 179 721 315 757 399 602 c 1
 552 602 l 2
 576 602 576 567 552 567 c 2
 416 567 l 1
 419 559 422 551 425 543 c 1
 489 543 l 2
 519 543 518 497 488 497 c 2
 310 497 l 2
 280 497 280 542 310 542 c 2
 372 542 l 1
 369 551 367 560 363 567 c 1
 201 567 l 1xef5e
 202 544 202 519 201 494 c 0
 201 452 202 394 201 376 c 0xef9e
 201 330 261 364 272 373 c 0
 298 392 296 398 331 401 c 0
 441 411 505 367 514 271 c 1
 481 264 457 236 457 202 c 0
 457 170 478 145 506 135 c 1
 498 91 481 48 442 18 c 0
 405 -11 362 -24 320 -23 c 1
 320 -84 l 1
 367 -85 419 -60 489 -9 c 0
 507 4 528 -24 509 -38 c 0
 434 -92 376 -120 320 -119 c 1
 321 -133 l 2
 321 -157 286 -157 286 -133 c 2
 285 -114 l 1
 246 -104 207 -77 166 -33 c 0
 150 -16 175 8 191 -9 c 0
 225 -44 255 -66 285 -77 c 1
 285 -19 l 1
 237 -7 197 26 180 82 c 0
 172 107 169 119 164 143 c 1
 154 143 l 1
 155 36 l 2
 155 12 120 12 120 36 c 2
 119 143 l 1xef3e
253 489 m 2
 493 489 l 2
 516 489 516 454 493 454 c 2
 253 454 l 2
 229 454 229 489 253 489 c 2
350 69 m 1
 359 92 362 179 360 203 c 0
 357 235 371 295 330 301 c 0
 307 305 310 340 333 337 c 0
 411 325 385 254 389 205 c 0
 391 179 398 39 354 35 c 0
 332 33 331 66 350 69 c 1
487 203 m 0
 487 229 508 249 533 249 c 0
 558 249 579 229 579 203 c 0
 579 178 558 157 533 157 c 0xdf1e
 508 157 487 178 487 203 c 0
EndSplineSet
Validated: 33
EndChar

StartChar: T
Encoding: 84 84 20
Width: 689
Flags: W
HStem: -86 35<12.0518 265 300 499> -23 45<229.619 265 300 337 412 499> 476 100<286.412 367.263> 483 35<160.906 263.859> 495 35<446.052 499 534 666.948> 546 105<153.094 274.932 412 499 534 634.424> 592 59<277.466 375.527> 684 35<184.052 499>
VStem: 108 45<436.85 546 650 677.15> 265 35<-111.948 -86 -51 -23 22 473.286> 276 100<486.854 566.883> 313 125<85.8247 457.405> 337 75<22 110.148> 393 19<490.178 544.447> 499 35<-51 -23 22 495 530 545 650 684> 635 34<648 761.948>
LayerCount: 2
Back
Fore
SplineSet
265 -86 m 1xcdc7
 26 -86 l 2
 3 -86 3 -51 26 -51 c 2
 265 -51 l 1
 265 -23 l 1
 245 -22 l 2
 215 -22 215 23 245 23 c 2
 265 22 l 1
 265 483 l 1
 173 483 l 2
 150 483 151 518 174 518 c 2
 260 519 l 1
 262 493 277 472 300 463 c 1
 300 22 l 1
 337 22 l 1
 337 83 l 1xd1cb
 324 93 313 111 313 133 c 2
 313 430 l 2xd193
 313 442 316 450 321 458 c 1
 327 455 332 460 337 458 c 0xd18b
 369 463 393 491 393 525 c 0
 393 558 368 587 336 592 c 0
 333 593 330 592 326 592 c 0xd387
 297 592 272 572 263 546 c 1
 153 546 l 1
 153 453 l 2
 153 423 108 423 108 453 c 2
 108 661 l 2
 108 691 152 691 153 661 c 2
 153 650 l 2
 155 651 157 651 159 651 c 2
 499 650 l 1
 499 684 l 1
 198 684 l 2
 175 684 175 719 198 719 c 2
 517 719 l 2
 526 719 534 711 534 701 c 2
 534 650 l 1
 617 651 l 2
 623 651 629 650 635 648 c 1
 634 748 l 2
 634 771 669 771 669 748 c 2
 669 597 l 2
 669 571 651 546 617 546 c 2
 534 545 l 1
 534 530 l 1
 653 530 l 2
 676 530 676 495 653 495 c 2
 534 495 l 1
 534 -68 l 2
 534 -77 526 -86 517 -86 c 2
 300 -86 l 1
 300 -98 l 2
 300 -121 265 -121 265 -98 c 2
 265 -86 l 1xcdc7
300 -51 m 1
 499 -51 l 1
 499 -23 l 1
 300 -23 l 1
 300 -51 l 1
412 82 m 1
 412 22 l 1
 499 22 l 1
 499 495 l 1
 460 495 l 2
 437 495 437 530 460 530 c 2
 499 530 l 1xc98b
 499 545 l 1
 412 545 l 1
 412 483 l 1xd187
 427 473 438 454 438 430 c 2
 438 133 l 2xd193
 438 110 426 93 412 82 c 1
276 526 m 0xe1a3
 276 554 299 576 326 576 c 0
 354 576 376 554 376 526 c 0
 376 499 357 476 329 476 c 0
 302 476 276 499 276 526 c 0xe1a3
EndSplineSet
Validated: 33
EndChar

StartChar: U
Encoding: 85 85 21
Width: 902
Flags: W
HStem: -92 45<306.104 438.422> 290 35<671 873.555> 446 80<166.896 247.104> 544 35<25.8589 259 333 352 377 513.119> 600 45<440.85 557 602 656.011> 668 25<377 816.505>
VStem: 161 45<49.1552 222.79> 162 90<451.812 520.188> 259 74<107.148 261 304.752 545 579 640.315> 270 35<-112.72 -78 -4 77.5547> 341 35<-13.9375 394.5> 352 25<498.495 544 579 668> 472 130<35.7947 411.76> 557 45<425 600> 636 35<3.58984 290>
LayerCount: 2
Back
Fore
SplineSet
382 -47 m 0xfe42
 479 -47 472 56 472 156 c 2
 472 355 l 2xfe4a
 472 414 519 441 557 425 c 1
 557 600 l 1
 457 600 l 2
 427 600 427 645 457 645 c 2
 639 645 l 2
 669 645 670 601 640 600 c 2
 602 600 l 1xfc06
 602 339 l 1
 602 133 l 2
 602 9 505 -92 382 -92 c 0
 355 -92 329 -87 305 -78 c 1
 305 -108 l 1
 441 -163 636 -68 636 64 c 2
 636 308 l 2
 636 317 645 325 654 325 c 2
 859 325 l 2
 883 325 883 290 859 290 c 2
 671 290 l 1
 671 63 l 2
 671 -104 433 -207 280 -136 c 0
 276 -134 270 -124 270 -120 c 2
 270 -60 l 1xfc4a
 205 -21 161 52 161 134 c 0
 161 217 197 275 259 320 c 1
 259 545 l 1
 40 544 l 2
 17 544 16 580 39 579 c 2
 259 579 l 1
 258 617 l 2
 258 668 333 668 333 618 c 2
 333 579 l 1
 352 579 l 1
 352 680 l 2
 352 687 358 693 365 693 c 2
 805 693 l 2
 822 693 822 668 805 668 c 2
 377 668 l 1
 377 579 l 1
 499 579 l 2
 523 580 522 544 499 544 c 2
 377 545 l 1
 377 510 l 2
 377 493 352 493 352 510 c 2
 352 544 l 1
 333 545 l 1
 333 130 l 2
 333 80 258 80 258 130 c 2
 259 261 l 1xfe92
 222 226 206 190 206 134 c 0
 206 79 231 29 270 -4 c 1
 270 63 l 2
 270 87 305 87 305 63 c 2
 305 -28 l 1
 328 -39 356 -47 382 -47 c 0xfe42
162 486 m 0xfd02
 162 508 182 526 207 526 c 0
 232 526 252 508 252 486 c 0
 252 464 232 446 207 446 c 0
 182 446 162 464 162 486 c 0xfd02
376 381 m 2xfc22
 376 -1 l 2
 376 -24 341 -24 341 -1 c 2
 341 381 l 2
 341 405 376 405 376 381 c 2xfc22
EndSplineSet
Validated: 33
EndChar

StartChar: V
Encoding: 86 86 22
Width: 701
Flags: HW
HStem: -94 35<253.052 325 368 613.948> -23 45<475 546.289> 29 89<506.068 587.206> 251 132<550.953 648.697> 566 35<233 254 406 474.948> 601 13<330 361> 614 45<199.85 252> 677 35<14.0518 351>
VStem: 499 95<36.5938 110.354> 534 132<267.953 365.697>
LayerCount: 2
Back
Fore
SplineSet
328 614 m 1xf3
 330 601 l 1xf5
 364 601 l 1
 361 614 l 1
 328 614 l 1xf3
398 616 m 1
 400 601 l 1xf540
 461 601 l 2
 484 601 484 566 461 566 c 2
 406 566 l 1
 421 489 l 2
 425 466 391 459 387 482 c 2
 371 566 l 1
 337 566 l 1
 422 95 l 1
 513 625 l 1
 530 668 581 672 613 649 c 1
 632 750 l 2
 636 773 670 765 666 742 c 2
 635 576 l 1
 604 404 l 2
 601 405 602 405 600 405 c 0
 550 405 510 365 510 315 c 0
 510 276 535 242 570 230 c 1
 567 216 l 2
 559 178 530 163 501 165 c 1
 475 22 l 1
 531 22 l 2
 561 23 560 -23 530 -23 c 2
 386 -23 l 2
 367 -23 363 -9 365 1 c 2
 260 566 l 1
 233 566 l 1xf940
 361 -59 l 1
 600 -59 l 2
 623 -59 623 -94 600 -94 c 2
 368 -94 l 1
 378 -144 l 2
 383 -167 349 -174 344 -151 c 2
 331 -94 l 1
 267 -94 l 2
 244 -94 244 -59 267 -59 c 2
 325 -59 l 1
 194 581 l 2
 191 594 202 601 212 601 c 2xf540
 254 601 l 1
 252 614 l 1
 216 614 l 2
 186 614 186 659 216 659 c 2
 353 659 l 1xfb40
 351 677 l 1
 28 677 l 2
 5 677 5 712 28 712 c 2
 365 712 l 2
 372 712 381 704 382 698 c 2
 389 660 l 1
 412 656 417 623 398 616 c 1
499 73 m 0xf180
 499 98 521 118 547 118 c 0
 573 118 594 98 594 73 c 0
 594 49 573 29 547 29 c 0
 521 29 499 49 499 73 c 0xf180
534 317 m 0xf140
 534 353 563 383 600 383 c 0
 636 383 666 353 666 317 c 0
 666 280 636 251 600 251 c 0
 563 251 534 280 534 317 c 0xf140
EndSplineSet
Validated: 33
EndChar

StartChar: W
Encoding: 87 87 23
Width: 986
Flags: HW
HStem: -156 35<18.4453 819> -78 35<548 561.948 639 838> -21 45<461 532.15 749 821.865> 28 69<488.641 551.359 792.098 844.119> 248 110<431.689 519.642> 557 35<373.445 485 623 704.555> 614 45<192.156 237 314 384.844> 629 35<670.445 737 911 962.948> 691 35<157.052 748>
VStem: 419 113<260.848 346.456> 486 68<30.4693 94.5435> 788 60<35.1849 95.8101>
LayerCount: 2
Back
Fore
SplineSet
678 149 m 1xfd90
 689 96 l 1
 793 629 l 1
 772 629 l 1
 678 149 l 1xfd90
685 664 m 2
 743 664 l 1
 748 691 l 1
 171 691 l 2
 148 691 148 726 171 726 c 2
 770 726 l 2
 781 726 789 717 787 705 c 2
 778 664 l 1
 949 664 l 2
 972 664 972 629 949 629 c 2
 911 629 l 1xfd90
 917 618 920 604 917 589 c 2
 847 218 l 2
 840 180 809 165 781 167 c 1
 749 24 l 1
 810 24 l 2
 840 24 840 -21 810 -21 c 2
 666 -21 l 2
 656 -21 650 -17 647 -12 c 1
 639 -43 l 1
 865 -43 l 2
 910 -43 856 -156 830 -156 c 2
 33 -156 l 2
 9 -156 9 -121 33 -121 c 2
 819 -121 l 1
 838 -78 l 1
 619 -78 l 2
 608 -78 600 -69 602 -57 c 2
 627 75 l 1
 574 324 l 1
 553 215 l 2
 546 178 515 162 487 165 c 1
 461 22 l 1
 516 22 l 2
 546 22 546 -23 516 -23 c 2
 372 -23 l 2
 353 -23 348 -9 350 1 c 2
 237 614 l 1
 202 614 l 2
 172 614 172 659 202 659 c 2
 375 659 l 2
 405 659 405 614 375 614 c 2
 314 614 l 1xfe90
 407 94 l 1
 432 238 l 1
 444 230 457 225 473 225 c 0
 517 225 552 261 552 305 c 0
 552 348 517 384 473 384 c 0
 467 384 461 382 456 381 c 1
 485 557 l 1
 388 557 l 2
 364 557 364 592 388 592 c 2
 493 592 l 1
 499 625 l 1
 524 690 632 666 623 592 c 1
 690 592 l 2
 714 592 714 557 690 557 c 2
 617 557 l 1
 606 492 l 1
 659 236 l 1
 737 629 l 1
 685 629 l 2
 661 629 661 664 685 664 c 2
230 563 m 2
 334 -43 l 1
 548 -43 l 2
 571 -43 571 -78 548 -78 c 2
 319 -78 l 2
 312 -78 303 -71 302 -64 c 2
 195 557 l 2
 191 580 226 586 230 563 c 2
486 63 m 0xfcb0
 486 81 501 97 520 97 c 0
 539 97 554 81 554 63 c 0
 554 44 539 28 520 28 c 0
 501 28 486 44 486 63 c 0xfcb0
788 65 m 0
 788 83 802 97 818 97 c 0
 835 97 848 83 848 65 c 0
 848 48 835 34 818 34 c 0
 802 34 788 48 788 65 c 0
419 305 m 0xfcd0
 419 336 446 358 477 358 c 0
 508 358 532 336 532 305 c 0
 532 273 507 248 476 248 c 0
 445 248 419 273 419 305 c 0xfcd0
EndSplineSet
Validated: 33
EndChar

StartChar: X
Encoding: 88 88 24
Width: 935
Flags: W
HStem: -152 45<599.85 698 751 845.15> -68 35<192.052 646 784 797 826 853.555> -19 45<283 517.289> 212 154<235.096 332.427> 226 96<483.688 564.56> 531 53<708 737> 531 35<443.052 609 737 758 831 860.555> 582 25<10.1719 164> 593 45<572.85 784.15> 618 46<303 389.568> 666 35<400.052 864>
VStem: 213 141<234.375 343.625> 476 96<234.068 313.932>
LayerCount: 2
Back
Fore
SplineSet
655 593 m 1xe0b8
 589 593 l 2
 559 593 559 638 589 638 c 2
 768 638 l 2
 798 638 798 593 768 593 c 2
 745 593 l 1
 655 593 l 1xe0b8
745 584 m 1xe438
 744 578 742 572 737 566 c 1
 786 566 l 1
 864 666 l 1
 414 666 l 2
 391 666 391 701 414 701 c 2
 900 701 l 2
 918 701 924 687 913 673 c 2
 831 566 l 1
 846 566 l 2
 870 566 870 531 846 531 c 2
 805 531 l 1
 648 332 l 2
 634 314 606 335 621 354 c 2
 758 531 l 1xe238
 708 531 l 1xe438
 565 360 l 1
 826 -33 l 1
 839 -33 l 2
 863 -32 863 -68 839 -68 c 2
 784 -68 l 1
 785 -84 763 -93 752 -77 c 2
 746 -68 l 1
 724 -68 l 1
 751 -107 l 1
 829 -107 l 2
 859 -107 859 -152 829 -152 c 2
 616 -152 l 2
 586 -152 586 -107 616 -107 c 2
 698 -107 l 1
 671 -68 l 1
 206 -68 l 2
 183 -68 183 -33 206 -33 c 2
 646 -33 l 1
 459 235 l 1
 283 26 l 1
 501 27 l 2
 531 27 532 -19 502 -19 c 2
 185 -19 l 2
 147 -19 172 9 185 26 c 2
 414 300 l 1
 368 365 l 1
 345 358 321 366 303 393 c 2
 180 582 l 1
 21 582 l 2
 5 582 5 607 21 607 c 2
 164 607 l 1
 155 620 l 2
 127 656 150 664 168 664 c 2
 375 664 l 2
 405 664 405 619 375 619 c 2
 303 618 l 1
 407 462 l 2
 426 434 423 409 406 390 c 1
 444 335 l 1
 504 406 l 1
 455 480 l 2
 446 494 467 508 476 494 c 2
 521 426 l 1
 609 531 l 1
 457 531 l 2
 434 531 434 566 457 566 c 2
 639 566 l 1xe378
 655 584 l 1
 745 584 l 1xe438
724 -33 m 1
 560 219 l 1
 570 225 580 234 586 244 c 1
 764 -33 l 1
 797 -33 l 1
 594 273 l 2
 594 274 594 276 594 277 c 0
 594 306 574 330 548 339 c 0
 541 341 534 343 526 343 c 0
 489 343 459 313 459 276 c 0
 459 239 489 209 526 209 c 0
 528 209 529 209 532 210 c 2
 700 -33 l 1
 724 -33 l 1
213 289 m 0
 213 332 245 366 284 366 c 0
 323 366 354 332 354 289 c 0
 354 246 323 212 284 212 c 0xf038
 245 212 213 246 213 289 c 0
476 274 m 0
 476 301 498 322 524 322 c 0
 551 322 572 301 572 274 c 0
 572 247 551 226 524 226 c 0xe838
 498 226 476 247 476 274 c 0
EndSplineSet
Validated: 33
EndChar

StartChar: Y
Encoding: 89 89 25
Width: 878
Flags: W
HStem: -152 35<218.445 377 412 703> -108 45<344.85 377 412 433 508 608.567> -30 35<595.844 703 738 861.938> 218 35<310.052 377 412 433 508 550> 467 85<533.607 606.393> 484 35<9.85895 173 249 253 339 365.119> 579 47<147.85 204 260 335.575> 592 43<494.172 579 745 789.188>
VStem: 377 35<-170.938 -152 -117 -108 -63 218 253 274> 433 75<-63 218 253 299> 528 84<472.642 546.393> 550 35<12.6197 218> 703 35<-117 -30 5 97.5547>
LayerCount: 2
Back
Fore
SplineSet
377 274 m 1xf5d8
 203 484 l 1
 23 484 l 2
 0 484 1 519 24 519 c 2
 173 519 l 1
 169 525 l 2
 155 544 191 554 205 536 c 2
 219 519 l 1
 253 519 l 1
 204 579 l 1
 164 579 l 2
 134 580 134 626 164 626 c 2
 320 626 l 2xf6d8
 350 626 353 582 323 582 c 2
 260 582 l 1
 310 519 l 1
 351 519 l 2
 375 519 374 484 351 484 c 2
 339 484 l 1
 467 327 l 1
 520 393 l 1
 485 408 461 452 494 492 c 2
 513 513 l 2
 513 512 512 510 512 508 c 0
 512 475 539 448 572 448 c 0
 604 448 631 475 631 508 c 0
 631 541 604 567 572 567 c 0
 566 567 561 566 556 565 c 2
 579 592 l 1
 505 592 l 2
 476 592 482 635 512 635 c 2
 772 635 l 2
 802 635 804 592 774 592 c 2
 745 592 l 1
 689 524 l 1
 508 305 l 1
 508 253 l 1
 566 253 l 2
 575 253 585 245 585 235 c 2
 585 30 l 1
 595 25 602 17 605 5 c 1
 703 5 l 1
 703 83 l 2
 703 107 738 107 738 83 c 2
 738 5 l 1
 849 6 l 2
 872 6 872 -29 849 -29 c 2
 738 -30 l 1
 738 -134 l 2
 738 -143 730 -152 721 -152 c 2
 412 -152 l 1
 412 -158 l 2
 412 -181 377 -181 377 -158 c 2
 377 -152 l 1
 233 -152 l 2
 209 -152 209 -117 233 -117 c 2
 377 -117 l 1
 377 -108 l 1
 361 -108 l 2
 331 -108 331 -63 361 -63 c 2
 377 -63 l 1
 377 218 l 1
 324 218 l 2
 301 218 301 253 324 253 c 2
 377 253 l 1
 377 274 l 1xf5d8
602 -30 m 1
 595 -43 583 -53 568 -53 c 0
 547 -53 529 -33 529 -9 c 0
 529 8 538 22 550 30 c 1
 550 218 l 1
 508 218 l 1
 508 -63 l 1
 592 -63 l 2
 622 -63 625 -108 595 -108 c 2
 412 -108 l 1
 412 -117 l 1
 703 -117 l 1
 703 -29 l 1
 602 -30 l 1
433 299 m 1
 281 484 l 1
 249 484 l 1
 408 291 l 1
 408 291 412 281 413 280 c 2
 412 253 l 1
 433 253 l 1
 433 299 l 1
433 -63 m 1
 433 218 l 1
 412 218 l 1
 412 -63 l 1
 433 -63 l 1
535 305 m 2
 745 557 l 2
 760 575 787 553 772 535 c 2
 562 283 l 2
 547 265 520 287 535 305 c 2
528 510 m 0xf8e8
 528 533 547 552 570 552 c 0
 593 552 612 533 612 510 c 0
 612 486 593 467 570 467 c 0
 547 467 528 486 528 510 c 0xf8e8
EndSplineSet
Validated: 33
EndChar

StartChar: Z
Encoding: 90 90 26
Width: 891
Flags: W
HStem: -105 35<84 687 732 875.948> -44 125<476.312 687> -8 47<297 476.922> 40 75<370.53 435.47> 137 35<467.052 618.948> 182 35<539.052 687> 225 49<448.99 532.272> 228 35<600.346 687 732 799.169> 383 53<445.73 522.794> 490 101<474.515 559.485> 524 127<224 439.531> 606 45<453 651> 616 35<8.44531 179> 662 35<245.052 706.948>
VStem: 179 45<438.85 524 651 701.15> 367 72<42.9688 112.016> 384 51<286.369 371.889> 465 104<499.456 581.604> 544 51<286.316 371.434> 687 45<-71 -44 81 182 217 228>
LayerCount: 2
Back
Fore
SplineSet
687 -71 m 1xcd86b0
 687 -44 l 1
 526 -44 l 2xcd86b0
 495 -44 477 -30 469 -8 c 1
 208 -8 l 2
 184 -8 176 10 190 28 c 2
 397 287 l 1
 389 302 384 313 384 330 c 0
 384 389 431 436 489 436 c 0
 497 436 505 434 513 432 c 1
 651 606 l 1
 453 606 l 1xac96b0
 462 571 442 524 393 524 c 2
 224 524 l 1x8ca6b0
 224 455 l 2
 224 425 179 425 179 455 c 2
 179 616 l 1
 23 616 l 2
 -1 616 -1 651 23 651 c 2x8c8eb0
 179 650 l 1
 179 685 l 2
 179 715 224 715 224 685 c 2
 224 651 l 1x8ca6b0
 741 651 l 2
 764 651 773 631 758 613 c 2
 578 387 l 1
 589 370 595 351 595 330 c 0
 595 272 547 225 489 225 c 0
 476 225 462 227 451 232 c 1
 297 39 l 1xae8eb0
 467 38 l 1
 473 64 491 81 526 81 c 2
 687 81 l 1
 687 182 l 1
 553 182 l 2
 530 182 530 217 553 217 c 2
 687 217 l 1
 687 228 l 1
 612 228 l 2
 588 228 588 263 612 263 c 2
 689 263 l 1
 695 283 725 283 731 263 c 1
 788 263 l 2
 811 263 811 228 788 228 c 2
 732 228 l 1
 732 -71 l 1
 862 -70 l 2
 885 -70 885 -105 862 -105 c 2
 50 -105 l 2
 32 -105 25 -92 36 -78 c 2
 275 256 l 2
 288 275 317 255 303 236 c 2
 84 -70 l 1
 687 -71 l 1xcd86b0
481 172 m 2
 605 172 l 2
 628 172 628 137 605 137 c 2
 481 137 l 2
 458 137 458 172 481 172 c 2
367 77 m 0x9c8710
 367 98 383 115 403 115 c 0
 423 115 439 98 439 77 c 0
 439 57 423 40 403 40 c 0
 383 40 367 57 367 77 c 0x9c8710
465 541 m 0x8cc650
 465 568 488 591 517 591 c 0
 546 591 569 568 569 541 c 0
 569 513 546 490 517 490 c 0
 488 490 465 513 465 541 c 0x8cc650
259 697 m 2
 693 697 l 2
 716 697 716 662 693 662 c 2
 259 662 l 2
 236 662 236 697 259 697 c 2
435 329 m 0x8e86b0
 435 299 459 274 489 274 c 0
 519 274 544 299 544 329 c 0
 544 359 519 383 489 383 c 0
 459 383 435 359 435 329 c 0x8e86b0
EndSplineSet
Validated: 33
EndChar
